<mxfile host="app.diagrams.net" modified="2024-01-30T08:44:03.914Z" agent="Mozilla/5.0 (Windows NT 10.0; Win64; x64) AppleWebKit/537.36 (KHTML, like Gecko) Chrome/114.0.0.0 Safari/537.36" version="23.0.2" etag="IrZn2cw1yY0jw-JqtI0u" type="github">
  <diagram name="Trang-1" id="ei1CikzQKxJg4yX7biTF">
    <mxGraphModel>
      <root>
        <mxCell id="0" />
        <mxCell id="1" parent="0" />
      </root>
    </mxGraphModel>
  </diagram>
</mxfile>
